<?xml version="1.0" encoding="UTF-8" standalone="no"?><svg xmlns="http://www.w3.org/2000/svg" xmlns:xlink="http://www.w3.org/1999/xlink" clip-rule="evenodd" stroke-miterlimit="10" viewBox="0 0 1024 768"><desc>SVG generated by Keynote</desc><defs></defs><g transform="matrix(1.00, 0.00, -0.00, -1.00, 0.0, 768.0)"><g><clipPath id="clip0x6080014bcda0"><path d="M 0.0 768.0 L 1024.0 768.0 L 1024.0 0.0 L 0.0 0.0 Z M 0.0 768.0 "></path></clipPath><g clip-path="url(#clip0x6080014bcda0)"><image xlink:href="../../5CA3617A-923C-46D8-BDB6-49349E198D9E/assets/5A8C990C4A4597A5304AC9F14CDA7C87.jpeg" width="2048.00" height="1536.00" transform="matrix(0.50, 0.00, -0.00, -0.50, 0.0, 768.0)"></image></g></g><image xlink:href="../../BC30688B-6D80-400B-A5B6-EE77A2C654A6/assets/B9D62A074161876B3E6FBE34D2DA325A.png" width="645.00" height="516.00" transform="matrix(1.31, 0.00, -0.00, -1.31, 88.5, 649.1)"></image><text xml:space="preserve" font-family="Chalkduster,Chalkduster" font-size="40.0" fill="#404040" transform="matrix(1.00, 0.00, -0.00, -1.00, 92.8, 690.7)">E</text><text xml:space="preserve" font-family="Chalkduster,Chalkduster" font-size="40.0" fill="#404040" transform="matrix(1.00, 0.00, -0.00, -1.00, 122.4, 690.7)">f</text><text xml:space="preserve" font-family="Chalkduster,Chalkduster" font-size="40.0" fill="#404040" transform="matrix(1.00, 0.00, -0.00, -1.00, 142.5, 690.7)">f</text><text xml:space="preserve" font-family="Chalkduster,Chalkduster" font-size="40.0" fill="#404040" transform="matrix(1.00, 0.00, -0.00, -1.00, 164.2, 690.7)">e</text><text xml:space="preserve" font-family="Chalkduster,Chalkduster" font-size="40.0" fill="#404040" transform="matrix(1.00, 0.00, -0.00, -1.00, 189.6, 690.7)">c</text><text xml:space="preserve" font-family="Chalkduster,Chalkduster" font-size="40.0" fill="#404040" transform="matrix(1.00, 0.00, -0.00, -1.00, 213.4, 690.7)">t</text><text xml:space="preserve" font-family="Chalkduster,Chalkduster" font-size="40.0" fill="#404040" transform="matrix(1.00, 0.00, -0.00, -1.00, 231.8, 690.7)">i</text><text xml:space="preserve" font-family="Chalkduster,Chalkduster" font-size="40.0" fill="#404040" transform="matrix(1.00, 0.00, -0.00, -1.00, 247.7, 690.7)">v</text><text xml:space="preserve" font-family="Chalkduster,Chalkduster" font-size="40.0" fill="#404040" transform="matrix(1.00, 0.00, -0.00, -1.00, 272.3, 690.7)">e</text><text xml:space="preserve" font-family="Chalkduster,Chalkduster" font-size="40.0" fill="#404040" transform="matrix(1.00, 0.00, -0.00, -1.00, 297.5, 690.7)">n</text><text xml:space="preserve" font-family="Chalkduster,Chalkduster" font-size="40.0" fill="#404040" transform="matrix(1.00, 0.00, -0.00, -1.00, 327.5, 690.7)">e</text><text xml:space="preserve" font-family="Chalkduster,Chalkduster" font-size="40.0" fill="#404040" transform="matrix(1.00, 0.00, -0.00, -1.00, 353.2, 690.7)">s</text><text xml:space="preserve" font-family="Chalkduster,Chalkduster" font-size="40.0" fill="#404040" transform="matrix(1.00, 0.00, -0.00, -1.00, 373.4, 690.7)">s</text></g></svg>