<?xml version="1.0" encoding="UTF-8" standalone="no"?><svg xmlns="http://www.w3.org/2000/svg" xmlns:xlink="http://www.w3.org/1999/xlink" clip-rule="evenodd" stroke-miterlimit="10" viewBox="0 0 1024 768"><desc>SVG generated by Keynote</desc><defs></defs><g transform="matrix(1.00, 0.00, -0.00, -1.00, 0.0, 768.0)"><g><clipPath id="clip0x6080018a4fe0"><path d="M 0.0 768.0 L 1024.0 768.0 L 1024.0 0.0 L 0.0 0.0 Z M 0.0 768.0 "></path></clipPath><g clip-path="url(#clip0x6080018a4fe0)"><image xlink:href="../../5CA3617A-923C-46D8-BDB6-49349E198D9E/assets/5A8C990C4A4597A5304AC9F14CDA7C87.jpeg" width="2048.00" height="1536.00" transform="matrix(0.50, 0.00, -0.00, -0.50, 0.0, 768.0)"></image></g></g><image xlink:href="../../BD42258E-BA05-4268-8830-12DB9D757E20/assets/ABEFAF7A2B1088C07F1771181ED8DA87.jpeg" width="295.00" height="271.00" transform="matrix(0.86, 0.00, -0.00, -0.86, 167.1, 499.5)"></image><image xlink:href="../../BD42258E-BA05-4268-8830-12DB9D757E20/assets/E3988020CAB08AC5242F754ADE4B2990.png" width="1062.00" height="395.00" transform="matrix(0.24, 0.00, -0.00, -0.24, 167.1, 265.4)"></image><text xml:space="preserve" font-family="HelveticaNeue-Bold,Helvetica Neue" font-weight="bold" font-size="29.0" fill="#404040" transform="matrix(1.00, 0.00, -0.00, -1.00, 479.4, 404.6)">I</text><text xml:space="preserve" font-family="HelveticaNeue-Bold,Helvetica Neue" font-weight="bold" font-size="29.0" fill="#404040" transform="matrix(1.00, 0.00, -0.00, -1.00, 488.0, 404.6)">S</text><text xml:space="preserve" font-family="HelveticaNeue-Bold,Helvetica Neue" font-weight="bold" font-size="29.0" fill="#404040" transform="matrix(1.00, 0.00, -0.00, -1.00, 506.8, 404.6)">O</text><text xml:space="preserve" font-family="HelveticaNeue-Bold,Helvetica Neue" font-weight="bold" font-size="29.0" fill="#404040" transform="matrix(1.00, 0.00, -0.00, -1.00, 529.3, 404.6)"> </text><text xml:space="preserve" font-family="HelveticaNeue-Bold,Helvetica Neue" font-weight="bold" font-size="29.0" fill="#404040" transform="matrix(1.00, 0.00, -0.00, -1.00, 537.4, 404.6)">9</text><text xml:space="preserve" font-family="HelveticaNeue-Bold,Helvetica Neue" font-weight="bold" font-size="29.0" fill="#404040" transform="matrix(1.00, 0.00, -0.00, -1.00, 553.5, 404.6)">2</text><text xml:space="preserve" font-family="HelveticaNeue-Bold,Helvetica Neue" font-weight="bold" font-size="29.0" fill="#404040" transform="matrix(1.00, 0.00, -0.00, -1.00, 569.6, 404.6)">4</text><text xml:space="preserve" font-family="HelveticaNeue-Bold,Helvetica Neue" font-weight="bold" font-size="29.0" fill="#404040" transform="matrix(1.00, 0.00, -0.00, -1.00, 585.8, 404.6)">1</text><text xml:space="preserve" font-family="HelveticaNeue-Bold,Helvetica Neue" font-weight="bold" font-size="29.0" fill="#404040" transform="matrix(1.00, 0.00, -0.00, -1.00, 601.9, 404.6)">-</text><text xml:space="preserve" font-family="HelveticaNeue-Bold,Helvetica Neue" font-weight="bold" font-size="29.0" fill="#404040" transform="matrix(1.00, 0.00, -0.00, -1.00, 613.7, 404.6)">1</text><text xml:space="preserve" font-family="HelveticaNeue-Bold,Helvetica Neue" font-weight="bold" font-size="29.0" fill="#404040" transform="matrix(1.00, 0.00, -0.00, -1.00, 629.8, 404.6)">1</text><text xml:space="preserve" font-family="HelveticaNeue-Bold,Helvetica Neue" font-weight="bold" font-size="29.0" fill="#404040" transform="matrix(1.00, 0.00, -0.00, -1.00, 645.9, 404.6)">:</text><text xml:space="preserve" font-family="HelveticaNeue-Bold,Helvetica Neue" font-weight="bold" font-size="29.0" fill="#404040" transform="matrix(1.00, 0.00, -0.00, -1.00, 654.0, 404.6)">1</text><text xml:space="preserve" font-family="HelveticaNeue-Bold,Helvetica Neue" font-weight="bold" font-size="29.0" fill="#404040" transform="matrix(1.00, 0.00, -0.00, -1.00, 670.1, 404.6)">9</text><text xml:space="preserve" font-family="HelveticaNeue-Bold,Helvetica Neue" font-weight="bold" font-size="29.0" fill="#404040" transform="matrix(1.00, 0.00, -0.00, -1.00, 686.3, 404.6)">9</text><text xml:space="preserve" font-family="HelveticaNeue-Bold,Helvetica Neue" font-weight="bold" font-size="29.0" fill="#404040" transform="matrix(1.00, 0.00, -0.00, -1.00, 702.4, 404.6)">8</text><text xml:space="preserve" font-family="HelveticaNeue-Bold,Helvetica Neue" font-weight="bold" font-size="29.0" fill="#404040" transform="matrix(1.00, 0.00, -0.00, -1.00, 718.5, 404.6)"> </text><text xml:space="preserve" font-family="HelveticaNeue-Bold,Helvetica Neue" font-weight="bold" font-size="24.0" fill="#404040" transform="matrix(1.00, 0.00, -0.00, -1.00, 479.4, 359.7)">E</text><text xml:space="preserve" font-family="HelveticaNeue-Bold,Helvetica Neue" font-weight="bold" font-size="24.0" fill="#404040" transform="matrix(1.00, 0.00, -0.00, -1.00, 495.0, 359.7)">r</text><text xml:space="preserve" font-family="HelveticaNeue-Bold,Helvetica Neue" font-weight="bold" font-size="24.0" fill="#404040" transform="matrix(1.00, 0.00, -0.00, -1.00, 503.6, 359.7)">g</text><text xml:space="preserve" font-family="HelveticaNeue-Bold,Helvetica Neue" font-weight="bold" font-size="24.0" fill="#404040" transform="matrix(1.00, 0.00, -0.00, -1.00, 518.3, 359.7)">o</text><text xml:space="preserve" font-family="HelveticaNeue-Bold,Helvetica Neue" font-weight="bold" font-size="24.0" fill="#404040" transform="matrix(1.00, 0.00, -0.00, -1.00, 532.9, 359.7)">n</text><text xml:space="preserve" font-family="HelveticaNeue-Bold,Helvetica Neue" font-weight="bold" font-size="24.0" fill="#404040" transform="matrix(1.00, 0.00, -0.00, -1.00, 547.2, 359.7)">o</text><text xml:space="preserve" font-family="HelveticaNeue-Bold,Helvetica Neue" font-weight="bold" font-size="24.0" fill="#404040" transform="matrix(1.00, 0.00, -0.00, -1.00, 561.8, 359.7)">m</text><text xml:space="preserve" font-family="HelveticaNeue-Bold,Helvetica Neue" font-weight="bold" font-size="24.0" fill="#404040" transform="matrix(1.00, 0.00, -0.00, -1.00, 583.6, 359.7)">i</text><text xml:space="preserve" font-family="HelveticaNeue-Bold,Helvetica Neue" font-weight="bold" font-size="24.0" fill="#404040" transform="matrix(1.00, 0.00, -0.00, -1.00, 589.8, 359.7)">c</text><text xml:space="preserve" font-family="HelveticaNeue-Bold,Helvetica Neue" font-weight="bold" font-size="24.0" fill="#404040" transform="matrix(1.00, 0.00, -0.00, -1.00, 603.6, 359.7)"> </text><text xml:space="preserve" font-family="HelveticaNeue-Bold,Helvetica Neue" font-weight="bold" font-size="24.0" fill="#404040" transform="matrix(1.00, 0.00, -0.00, -1.00, 610.2, 359.7)">r</text><text xml:space="preserve" font-family="HelveticaNeue-Bold,Helvetica Neue" font-weight="bold" font-size="24.0" fill="#404040" transform="matrix(1.00, 0.00, -0.00, -1.00, 619.1, 359.7)">e</text><text xml:space="preserve" font-family="HelveticaNeue-Bold,Helvetica Neue" font-weight="bold" font-size="24.0" fill="#404040" transform="matrix(1.00, 0.00, -0.00, -1.00, 632.9, 359.7)">q</text><text xml:space="preserve" font-family="HelveticaNeue-Bold,Helvetica Neue" font-weight="bold" font-size="24.0" fill="#404040" transform="matrix(1.00, 0.00, -0.00, -1.00, 647.6, 359.7)">u</text><text xml:space="preserve" font-family="HelveticaNeue-Bold,Helvetica Neue" font-weight="bold" font-size="24.0" fill="#404040" transform="matrix(1.00, 0.00, -0.00, -1.00, 661.8, 359.7)">i</text><text xml:space="preserve" font-family="HelveticaNeue-Bold,Helvetica Neue" font-weight="bold" font-size="24.0" fill="#404040" transform="matrix(1.00, 0.00, -0.00, -1.00, 668.0, 359.7)">r</text><text xml:space="preserve" font-family="HelveticaNeue-Bold,Helvetica Neue" font-weight="bold" font-size="24.0" fill="#404040" transform="matrix(1.00, 0.00, -0.00, -1.00, 676.9, 359.7)">e</text><text xml:space="preserve" font-family="HelveticaNeue-Bold,Helvetica Neue" font-weight="bold" font-size="24.0" fill="#404040" transform="matrix(1.00, 0.00, -0.00, -1.00, 690.7, 359.7)">m</text><text xml:space="preserve" font-family="HelveticaNeue-Bold,Helvetica Neue" font-weight="bold" font-size="24.0" fill="#404040" transform="matrix(1.00, 0.00, -0.00, -1.00, 712.4, 359.7)">e</text><text xml:space="preserve" font-family="HelveticaNeue-Bold,Helvetica Neue" font-weight="bold" font-size="24.0" fill="#404040" transform="matrix(1.00, 0.00, -0.00, -1.00, 726.2, 359.7)">n</text><text xml:space="preserve" font-family="HelveticaNeue-Bold,Helvetica Neue" font-weight="bold" font-size="24.0" fill="#404040" transform="matrix(1.00, 0.00, -0.00, -1.00, 740.4, 359.7)">t</text><text xml:space="preserve" font-family="HelveticaNeue-Bold,Helvetica Neue" font-weight="bold" font-size="24.0" fill="#404040" transform="matrix(1.00, 0.00, -0.00, -1.00, 748.9, 359.7)">s</text><text xml:space="preserve" font-family="HelveticaNeue-Bold,Helvetica Neue" font-weight="bold" font-size="24.0" fill="#404040" transform="matrix(1.00, 0.00, -0.00, -1.00, 761.8, 359.7)"> </text><text xml:space="preserve" font-family="HelveticaNeue-Bold,Helvetica Neue" font-weight="bold" font-size="24.0" fill="#404040" transform="matrix(1.00, 0.00, -0.00, -1.00, 768.4, 359.7)">f</text><text xml:space="preserve" font-family="HelveticaNeue-Bold,Helvetica Neue" font-weight="bold" font-size="24.0" fill="#404040" transform="matrix(1.00, 0.00, -0.00, -1.00, 776.4, 359.7)">o</text><text xml:space="preserve" font-family="HelveticaNeue-Bold,Helvetica Neue" font-weight="bold" font-size="24.0" fill="#404040" transform="matrix(1.00, 0.00, -0.00, -1.00, 791.1, 359.7)">r</text><text xml:space="preserve" font-family="HelveticaNeue-Bold,Helvetica Neue" font-weight="bold" font-size="24.0" fill="#404040" transform="matrix(1.00, 0.00, -0.00, -1.00, 800.4, 359.7)"> </text><text xml:space="preserve" font-family="HelveticaNeue-Bold,Helvetica Neue" font-weight="bold" font-size="24.0" fill="#404040" transform="matrix(1.00, 0.00, -0.00, -1.00, 807.1, 359.7)">o</text><text xml:space="preserve" font-family="HelveticaNeue-Bold,Helvetica Neue" font-weight="bold" font-size="24.0" fill="#404040" transform="matrix(1.00, 0.00, -0.00, -1.00, 821.8, 359.7)">ﬃ</text><text xml:space="preserve" font-family="HelveticaNeue-Bold,Helvetica Neue" font-weight="bold" font-size="24.0" fill="#404040" transform="matrix(1.00, 0.00, -0.00, -1.00, 843.2, 359.7)">c</text><text xml:space="preserve" font-family="HelveticaNeue-Bold,Helvetica Neue" font-weight="bold" font-size="24.0" fill="#404040" transform="matrix(1.00, 0.00, -0.00, -1.00, 857.0, 359.7)">e</text><text xml:space="preserve" font-family="HelveticaNeue-Bold,Helvetica Neue" font-weight="bold" font-size="24.0" fill="#404040" transform="matrix(1.00, 0.00, -0.00, -1.00, 870.8, 359.7)"> </text><text xml:space="preserve" font-family="HelveticaNeue-Bold,Helvetica Neue" font-weight="bold" font-size="24.0" fill="#404040" transform="matrix(1.00, 0.00, -0.00, -1.00, 479.4, 330.7)">w</text><text xml:space="preserve" font-family="HelveticaNeue-Bold,Helvetica Neue" font-weight="bold" font-size="24.0" fill="#404040" transform="matrix(1.00, 0.00, -0.00, -1.00, 498.9, 330.7)">o</text><text xml:space="preserve" font-family="HelveticaNeue-Bold,Helvetica Neue" font-weight="bold" font-size="24.0" fill="#404040" transform="matrix(1.00, 0.00, -0.00, -1.00, 513.6, 330.7)">r</text><text xml:space="preserve" font-family="HelveticaNeue-Bold,Helvetica Neue" font-weight="bold" font-size="24.0" fill="#404040" transform="matrix(1.00, 0.00, -0.00, -1.00, 522.9, 330.7)">k</text><text xml:space="preserve" font-family="HelveticaNeue-Bold,Helvetica Neue" font-weight="bold" font-size="24.0" fill="#404040" transform="matrix(1.00, 0.00, -0.00, -1.00, 536.7, 330.7)"> </text><text xml:space="preserve" font-family="HelveticaNeue-Bold,Helvetica Neue" font-weight="bold" font-size="24.0" fill="#404040" transform="matrix(1.00, 0.00, -0.00, -1.00, 543.4, 330.7)">w</text><text xml:space="preserve" font-family="HelveticaNeue-Bold,Helvetica Neue" font-weight="bold" font-size="24.0" fill="#404040" transform="matrix(1.00, 0.00, -0.00, -1.00, 562.9, 330.7)">i</text><text xml:space="preserve" font-family="HelveticaNeue-Bold,Helvetica Neue" font-weight="bold" font-size="24.0" fill="#404040" transform="matrix(1.00, 0.00, -0.00, -1.00, 569.1, 330.7)">t</text><text xml:space="preserve" font-family="HelveticaNeue-Bold,Helvetica Neue" font-weight="bold" font-size="24.0" fill="#404040" transform="matrix(1.00, 0.00, -0.00, -1.00, 577.6, 330.7)">h</text><text xml:space="preserve" font-family="HelveticaNeue-Bold,Helvetica Neue" font-weight="bold" font-size="24.0" fill="#404040" transform="matrix(1.00, 0.00, -0.00, -1.00, 591.8, 330.7)"> </text><text xml:space="preserve" font-family="HelveticaNeue-Bold,Helvetica Neue" font-weight="bold" font-size="24.0" fill="#404040" transform="matrix(1.00, 0.00, -0.00, -1.00, 598.5, 330.7)">v</text><text xml:space="preserve" font-family="HelveticaNeue-Bold,Helvetica Neue" font-weight="bold" font-size="24.0" fill="#404040" transform="matrix(1.00, 0.00, -0.00, -1.00, 610.9, 330.7)">i</text><text xml:space="preserve" font-family="HelveticaNeue-Bold,Helvetica Neue" font-weight="bold" font-size="24.0" fill="#404040" transform="matrix(1.00, 0.00, -0.00, -1.00, 617.1, 330.7)">s</text><text xml:space="preserve" font-family="HelveticaNeue-Bold,Helvetica Neue" font-weight="bold" font-size="24.0" fill="#404040" transform="matrix(1.00, 0.00, -0.00, -1.00, 630.0, 330.7)">u</text><text xml:space="preserve" font-family="HelveticaNeue-Bold,Helvetica Neue" font-weight="bold" font-size="24.0" fill="#404040" transform="matrix(1.00, 0.00, -0.00, -1.00, 644.3, 330.7)">a</text><text xml:space="preserve" font-family="HelveticaNeue-Bold,Helvetica Neue" font-weight="bold" font-size="24.0" fill="#404040" transform="matrix(1.00, 0.00, -0.00, -1.00, 658.0, 330.7)">l</text><text xml:space="preserve" font-family="HelveticaNeue-Bold,Helvetica Neue" font-weight="bold" font-size="24.0" fill="#404040" transform="matrix(1.00, 0.00, -0.00, -1.00, 664.2, 330.7)"> </text><text xml:space="preserve" font-family="HelveticaNeue-Bold,Helvetica Neue" font-weight="bold" font-size="24.0" fill="#404040" transform="matrix(1.00, 0.00, -0.00, -1.00, 670.9, 330.7)">d</text><text xml:space="preserve" font-family="HelveticaNeue-Bold,Helvetica Neue" font-weight="bold" font-size="24.0" fill="#404040" transform="matrix(1.00, 0.00, -0.00, -1.00, 685.6, 330.7)">i</text><text xml:space="preserve" font-family="HelveticaNeue-Bold,Helvetica Neue" font-weight="bold" font-size="24.0" fill="#404040" transform="matrix(1.00, 0.00, -0.00, -1.00, 691.8, 330.7)">s</text><text xml:space="preserve" font-family="HelveticaNeue-Bold,Helvetica Neue" font-weight="bold" font-size="24.0" fill="#404040" transform="matrix(1.00, 0.00, -0.00, -1.00, 704.6, 330.7)">p</text><text xml:space="preserve" font-family="HelveticaNeue-Bold,Helvetica Neue" font-weight="bold" font-size="24.0" fill="#404040" transform="matrix(1.00, 0.00, -0.00, -1.00, 719.3, 330.7)">l</text><text xml:space="preserve" font-family="HelveticaNeue-Bold,Helvetica Neue" font-weight="bold" font-size="24.0" fill="#404040" transform="matrix(1.00, 0.00, -0.00, -1.00, 725.5, 330.7)">a</text><text xml:space="preserve" font-family="HelveticaNeue-Bold,Helvetica Neue" font-weight="bold" font-size="24.0" fill="#404040" transform="matrix(1.00, 0.00, -0.00, -1.00, 739.3, 330.7)">y</text><text xml:space="preserve" font-family="HelveticaNeue-Bold,Helvetica Neue" font-weight="bold" font-size="24.0" fill="#404040" transform="matrix(1.00, 0.00, -0.00, -1.00, 751.7, 330.7)"> </text><text xml:space="preserve" font-family="HelveticaNeue-Bold,Helvetica Neue" font-weight="bold" font-size="24.0" fill="#404040" transform="matrix(1.00, 0.00, -0.00, -1.00, 758.4, 330.7)">t</text><text xml:space="preserve" font-family="HelveticaNeue-Bold,Helvetica Neue" font-weight="bold" font-size="24.0" fill="#404040" transform="matrix(1.00, 0.00, -0.00, -1.00, 766.8, 330.7)">e</text><text xml:space="preserve" font-family="HelveticaNeue-Bold,Helvetica Neue" font-weight="bold" font-size="24.0" fill="#404040" transform="matrix(1.00, 0.00, -0.00, -1.00, 780.6, 330.7)">r</text><text xml:space="preserve" font-family="HelveticaNeue-Bold,Helvetica Neue" font-weight="bold" font-size="24.0" fill="#404040" transform="matrix(1.00, 0.00, -0.00, -1.00, 790.0, 330.7)">m</text><text xml:space="preserve" font-family="HelveticaNeue-Bold,Helvetica Neue" font-weight="bold" font-size="24.0" fill="#404040" transform="matrix(1.00, 0.00, -0.00, -1.00, 811.7, 330.7)">i</text><text xml:space="preserve" font-family="HelveticaNeue-Bold,Helvetica Neue" font-weight="bold" font-size="24.0" fill="#404040" transform="matrix(1.00, 0.00, -0.00, -1.00, 817.9, 330.7)">n</text><text xml:space="preserve" font-family="HelveticaNeue-Bold,Helvetica Neue" font-weight="bold" font-size="24.0" fill="#404040" transform="matrix(1.00, 0.00, -0.00, -1.00, 832.1, 330.7)">a</text><text xml:space="preserve" font-family="HelveticaNeue-Bold,Helvetica Neue" font-weight="bold" font-size="24.0" fill="#404040" transform="matrix(1.00, 0.00, -0.00, -1.00, 845.9, 330.7)">l</text><text xml:space="preserve" font-family="HelveticaNeue-Bold,Helvetica Neue" font-weight="bold" font-size="24.0" fill="#404040" transform="matrix(1.00, 0.00, -0.00, -1.00, 852.1, 330.7)">s</text><text xml:space="preserve" font-family="HelveticaNeue-Bold,Helvetica Neue" font-weight="bold" font-size="24.0" fill="#404040" transform="matrix(1.00, 0.00, -0.00, -1.00, 865.0, 330.7)"> </text><text xml:space="preserve" font-family="HelveticaNeue-Bold,Helvetica Neue" font-weight="bold" font-size="24.0" fill="#404040" transform="matrix(1.00, 0.00, -0.00, -1.00, 479.4, 301.7)">(</text><text xml:space="preserve" font-family="HelveticaNeue-Bold,Helvetica Neue" font-weight="bold" font-size="24.0" fill="#404040" transform="matrix(1.00, 0.00, -0.00, -1.00, 486.5, 301.7)">V</text><text xml:space="preserve" font-family="HelveticaNeue-Bold,Helvetica Neue" font-weight="bold" font-size="24.0" fill="#404040" transform="matrix(1.00, 0.00, -0.00, -1.00, 501.6, 301.7)">D</text><text xml:space="preserve" font-family="HelveticaNeue-Bold,Helvetica Neue" font-weight="bold" font-size="24.0" fill="#404040" transform="matrix(1.00, 0.00, -0.00, -1.00, 519.4, 301.7)">T</text><text xml:space="preserve" font-family="HelveticaNeue-Bold,Helvetica Neue" font-weight="bold" font-size="24.0" fill="#404040" transform="matrix(1.00, 0.00, -0.00, -1.00, 531.4, 301.7)">s</text><text xml:space="preserve" font-family="HelveticaNeue-Bold,Helvetica Neue" font-weight="bold" font-size="24.0" fill="#404040" transform="matrix(1.00, 0.00, -0.00, -1.00, 544.3, 301.7)">)</text><text xml:space="preserve" font-family="HelveticaNeue-Bold,Helvetica Neue" font-weight="bold" font-size="24.0" fill="#404040" transform="matrix(1.00, 0.00, -0.00, -1.00, 551.4, 301.7)"> </text><text xml:space="preserve" font-family="HelveticaNeue-Bold,Helvetica Neue" font-weight="bold" font-size="24.0" fill="#404040" transform="matrix(1.00, 0.00, -0.00, -1.00, 558.1, 301.7)">-</text><text xml:space="preserve" font-family="HelveticaNeue-Bold,Helvetica Neue" font-weight="bold" font-size="24.0" fill="#404040" transform="matrix(1.00, 0.00, -0.00, -1.00, 567.8, 301.7)">-</text><text xml:space="preserve" font-family="HelveticaNeue-Bold,Helvetica Neue" font-weight="bold" font-size="24.0" fill="#404040" transform="matrix(1.00, 0.00, -0.00, -1.00, 577.6, 301.7)"> </text><text xml:space="preserve" font-family="HelveticaNeue-Bold,Helvetica Neue" font-weight="bold" font-size="24.0" fill="#404040" transform="matrix(1.00, 0.00, -0.00, -1.00, 584.3, 301.7)">P</text><text xml:space="preserve" font-family="HelveticaNeue-Bold,Helvetica Neue" font-weight="bold" font-size="24.0" fill="#404040" transform="matrix(1.00, 0.00, -0.00, -1.00, 600.3, 301.7)">a</text><text xml:space="preserve" font-family="HelveticaNeue-Bold,Helvetica Neue" font-weight="bold" font-size="24.0" fill="#404040" transform="matrix(1.00, 0.00, -0.00, -1.00, 614.1, 301.7)">r</text><text xml:space="preserve" font-family="HelveticaNeue-Bold,Helvetica Neue" font-weight="bold" font-size="24.0" fill="#404040" transform="matrix(1.00, 0.00, -0.00, -1.00, 623.4, 301.7)">t</text><text xml:space="preserve" font-family="HelveticaNeue-Bold,Helvetica Neue" font-weight="bold" font-size="24.0" fill="#404040" transform="matrix(1.00, 0.00, -0.00, -1.00, 631.8, 301.7)"> </text><text xml:space="preserve" font-family="HelveticaNeue-Bold,Helvetica Neue" font-weight="bold" font-size="24.0" fill="#404040" transform="matrix(1.00, 0.00, -0.00, -1.00, 638.5, 301.7)">1</text><text xml:space="preserve" font-family="HelveticaNeue-Bold,Helvetica Neue" font-weight="bold" font-size="24.0" fill="#404040" transform="matrix(1.00, 0.00, -0.00, -1.00, 651.9, 301.7)">1</text><text xml:space="preserve" font-family="HelveticaNeue-Bold,Helvetica Neue" font-weight="bold" font-size="24.0" fill="#404040" transform="matrix(1.00, 0.00, -0.00, -1.00, 665.2, 301.7)">:</text><text xml:space="preserve" font-family="HelveticaNeue-Bold,Helvetica Neue" font-weight="bold" font-size="24.0" fill="#404040" transform="matrix(1.00, 0.00, -0.00, -1.00, 671.9, 301.7)"> </text><text xml:space="preserve" font-family="HelveticaNeue-Bold,Helvetica Neue" font-weight="bold" font-size="24.0" fill="#404040" transform="matrix(1.00, 0.00, -0.00, -1.00, 678.6, 301.7)">G</text><text xml:space="preserve" font-family="HelveticaNeue-Bold,Helvetica Neue" font-weight="bold" font-size="24.0" fill="#404040" transform="matrix(1.00, 0.00, -0.00, -1.00, 696.8, 301.7)">u</text><text xml:space="preserve" font-family="HelveticaNeue-Bold,Helvetica Neue" font-weight="bold" font-size="24.0" fill="#404040" transform="matrix(1.00, 0.00, -0.00, -1.00, 711.0, 301.7)">i</text><text xml:space="preserve" font-family="HelveticaNeue-Bold,Helvetica Neue" font-weight="bold" font-size="24.0" fill="#404040" transform="matrix(1.00, 0.00, -0.00, -1.00, 717.2, 301.7)">d</text><text xml:space="preserve" font-family="HelveticaNeue-Bold,Helvetica Neue" font-weight="bold" font-size="24.0" fill="#404040" transform="matrix(1.00, 0.00, -0.00, -1.00, 731.9, 301.7)">a</text><text xml:space="preserve" font-family="HelveticaNeue-Bold,Helvetica Neue" font-weight="bold" font-size="24.0" fill="#404040" transform="matrix(1.00, 0.00, -0.00, -1.00, 745.6, 301.7)">n</text><text xml:space="preserve" font-family="HelveticaNeue-Bold,Helvetica Neue" font-weight="bold" font-size="24.0" fill="#404040" transform="matrix(1.00, 0.00, -0.00, -1.00, 759.9, 301.7)">c</text><text xml:space="preserve" font-family="HelveticaNeue-Bold,Helvetica Neue" font-weight="bold" font-size="24.0" fill="#404040" transform="matrix(1.00, 0.00, -0.00, -1.00, 773.6, 301.7)">e</text><text xml:space="preserve" font-family="HelveticaNeue-Bold,Helvetica Neue" font-weight="bold" font-size="24.0" fill="#404040" transform="matrix(1.00, 0.00, -0.00, -1.00, 787.4, 301.7)"> </text><text xml:space="preserve" font-family="HelveticaNeue-Bold,Helvetica Neue" font-weight="bold" font-size="24.0" fill="#404040" transform="matrix(1.00, 0.00, -0.00, -1.00, 794.1, 301.7)">o</text><text xml:space="preserve" font-family="HelveticaNeue-Bold,Helvetica Neue" font-weight="bold" font-size="24.0" fill="#404040" transform="matrix(1.00, 0.00, -0.00, -1.00, 808.8, 301.7)">n</text><text xml:space="preserve" font-family="HelveticaNeue-Bold,Helvetica Neue" font-weight="bold" font-size="24.0" fill="#404040" transform="matrix(1.00, 0.00, -0.00, -1.00, 823.0, 301.7)"> </text><text xml:space="preserve" font-family="HelveticaNeue-Bold,Helvetica Neue" font-weight="bold" font-size="24.0" fill="#404040" transform="matrix(1.00, 0.00, -0.00, -1.00, 479.4, 272.7)">u</text><text xml:space="preserve" font-family="HelveticaNeue-Bold,Helvetica Neue" font-weight="bold" font-size="24.0" fill="#404040" transform="matrix(1.00, 0.00, -0.00, -1.00, 493.6, 272.7)">s</text><text xml:space="preserve" font-family="HelveticaNeue-Bold,Helvetica Neue" font-weight="bold" font-size="24.0" fill="#404040" transform="matrix(1.00, 0.00, -0.00, -1.00, 506.5, 272.7)">a</text><text xml:space="preserve" font-family="HelveticaNeue-Bold,Helvetica Neue" font-weight="bold" font-size="24.0" fill="#404040" transform="matrix(1.00, 0.00, -0.00, -1.00, 520.3, 272.7)">b</text><text xml:space="preserve" font-family="HelveticaNeue-Bold,Helvetica Neue" font-weight="bold" font-size="24.0" fill="#404040" transform="matrix(1.00, 0.00, -0.00, -1.00, 535.0, 272.7)">i</text><text xml:space="preserve" font-family="HelveticaNeue-Bold,Helvetica Neue" font-weight="bold" font-size="24.0" fill="#404040" transform="matrix(1.00, 0.00, -0.00, -1.00, 541.2, 272.7)">l</text><text xml:space="preserve" font-family="HelveticaNeue-Bold,Helvetica Neue" font-weight="bold" font-size="24.0" fill="#404040" transform="matrix(1.00, 0.00, -0.00, -1.00, 547.3, 272.7)">i</text><text xml:space="preserve" font-family="HelveticaNeue-Bold,Helvetica Neue" font-weight="bold" font-size="24.0" fill="#404040" transform="matrix(1.00, 0.00, -0.00, -1.00, 553.5, 272.7)">t</text><text xml:space="preserve" font-family="HelveticaNeue-Bold,Helvetica Neue" font-weight="bold" font-size="24.0" fill="#404040" transform="matrix(1.00, 0.00, -0.00, -1.00, 562.0, 272.7)">y</text><image xlink:href="../../BD42258E-BA05-4268-8830-12DB9D757E20/assets/2E119143CBBD3E81C005B4E13F6AFFB7.png" width="431.00" height="128.00" transform="matrix(1.00, 0.00, -0.00, -1.00, 480.0, 536.0)"></image><text xml:space="preserve" font-family="SnellRoundhand-Bold,Snell Roundhand" font-weight="bold" font-size="120.0" fill="#404040" transform="matrix(1.00, 0.00, -0.00, -1.00, 485.6, 451.0)">u</text><text xml:space="preserve" font-family="SnellRoundhand-Bold,Snell Roundhand" font-weight="bold" font-size="120.0" fill="#404040" transform="matrix(1.00, 0.00, -0.00, -1.00, 543.4, 451.0)">s</text><text xml:space="preserve" font-family="SnellRoundhand-Bold,Snell Roundhand" font-weight="bold" font-size="120.0" fill="#404040" transform="matrix(1.00, 0.00, -0.00, -1.00, 587.8, 451.0)">a</text><text xml:space="preserve" font-family="SnellRoundhand-Bold,Snell Roundhand" font-weight="bold" font-size="120.0" fill="#404040" transform="matrix(1.00, 0.00, -0.00, -1.00, 650.0, 451.0)">b</text><text xml:space="preserve" font-family="SnellRoundhand-Bold,Snell Roundhand" font-weight="bold" font-size="120.0" fill="#404040" transform="matrix(1.00, 0.00, -0.00, -1.00, 707.8, 451.0)">i</text><text xml:space="preserve" font-family="SnellRoundhand-Bold,Snell Roundhand" font-weight="bold" font-size="120.0" fill="#404040" transform="matrix(1.00, 0.00, -0.00, -1.00, 738.8, 451.0)">l</text><text xml:space="preserve" font-family="SnellRoundhand-Bold,Snell Roundhand" font-weight="bold" font-size="120.0" fill="#404040" transform="matrix(1.00, 0.00, -0.00, -1.00, 769.9, 451.0)">i</text><text xml:space="preserve" font-family="SnellRoundhand-Bold,Snell Roundhand" font-weight="bold" font-size="120.0" fill="#404040" transform="matrix(1.00, 0.00, -0.00, -1.00, 801.0, 451.0)">t</text><text xml:space="preserve" font-family="SnellRoundhand-Bold,Snell Roundhand" font-weight="bold" font-size="120.0" fill="#404040" transform="matrix(1.00, 0.00, -0.00, -1.00, 834.4, 451.0)">y</text></g></svg>